# xmcd
#
# Track frame offsets: 
#        150
#        19437
#        43246
#        68429
#        92199
#        116326
#        138674
#        159646
#        216010
#        246112
#        274268
#        294749
#        317907
#
# Disc length: 4478 seconds
#
# Revision: 2
# Processed by: cddbd v1.5.1PL0 Copyright (c) Steve Scherf et al.
# Submitted via: ExactAudioCopy v0.95a5
#
DISCID=c8117c0d
DTITLE=Various Artist - Éthiopiques 10: Ethiopian Blues and Ballads
DYEAR=1900
DGENRE=Ethiopian
TTITLE0=Fréw Haylou - Eyètègnu nèqu
TTITLE1=Muluqèn Mèllèssè - Hédètch alu
TTITLE2=Alèmayèhu Eshèté - Tèrèdtchéwalèhu
TTITLE3=Tèsfa-Maryam Kidané - Heywèté
TTITLE4=Sèyfou Yohannès - Tezeta
TTITLE5=Alèmayèhu Eshèté - Altèlèyèshegnem
TTITLE6=Mulatu Astatqé - Gubèlyé
TTITLE7=Mahmoud Ahmed - Tezeta
TTITLE8=Alèmayèhu Eshèté - Man yehon telleq sèw
TTITLE9=Tèsfa-Maryam Kidané - Tezeta
TTITLE10=Menelik Wèsnatchèw - Tezeta
TTITLE11=Gètatchèw Kassa - Tezeta [slow]
TTITLE12=Gétatchèw Kassa - Tezeata [fast]
EXTD=
EXTT0=
EXTT1=
EXTT2=
EXTT3=
EXTT4=
EXTT5=
EXTT6=
EXTT7=
EXTT8=
EXTT9=
EXTT10=
EXTT11=
EXTT12=
PLAYORDER=
